<?xml version="1.0" encoding="utf-8"?>
<svg width="119px" height="118px" viewBox="0 0 119 118" version="1.1" xmlns="http://www.w3.org/2000/svg"
     xmlns:xlink="http://www.w3.org/1999/xlink">
    <g id="Page-1" stroke="none" stroke-width="1" fill="none" fill-rule="evenodd">
        <g id="App-in-logo" transform="translate(-1333.000000, -374.000000)" fill-rule="nonzero">
            <g id="Layer_2" transform="translate(59.000000, 0.000000)">
                <g id="Group" transform="translate(1274.000000, 374.000000)">
                    <g id="Path">
                        <path
                            d="M59.5,36.2 C46.9,36.2 36.6,46.4 36.6,59.1 L36.6,59.1 C36.6,71.7 46.8,82 59.5,82 L59.5,82 C72.1,82 82.4,71.8 82.4,59.1 L82.4,59.1 C82.4,46.5 72.2,36.2 59.5,36.2 L59.5,36.2 Z"
                            fill="#37B7FF"></path>
                        <path
                            d="M53.4,102.8 C43,101.3 33.4,96.2 26.4,88.2 C19.3,80.2 15.5,69.8 15.5,59.1 C15.5,34.8 35.3,15 59.6,15 C70.3,15 80.6,18.9 88.6,25.9 C96.6,32.9 101.8,42.4 103.2,52.8 C103.8,56.8 107.5,59.6 111.4,59 C115.4,58.4 118.2,54.7 117.6,50.8 C115.6,36.9 108.7,24.2 98.1,14.9 C87.4,5.5 73.7,0.4 59.5,0.4 C27.1,0.4 0.8,26.7 0.8,59.1 C0.8,73.3 6,87.1 15.4,97.8 C24.7,108.4 37.5,115.3 51.4,117.2 C51.7,117.2 52.1,117.3 52.4,117.3 C56,117.3 59.1,114.7 59.6,111 C60.2,107 57.4,103.3 53.4,102.8 Z"
                            fill="#1A1A1A"></path>
                        <path
                            d="M115.9,105.2 L105.8,95.1 C109.1,90.9 111.8,86.2 113.9,81.2 C115.4,77.5 113.6,73.2 109.9,71.7 C106.2,70.2 101.9,72 100.4,75.7 C98.2,81 95,85.9 91,89.9 C90.9,90 90.8,90.1 90.6,90.2 C90.5,90.3 90.4,90.4 90.3,90.6 C86.2,94.6 81.4,97.8 76.1,100 C72.4,101.5 70.6,105.8 72.1,109.5 C73.3,112.3 76,114 78.9,114 C79.8,114 80.7,113.8 81.6,113.5 C86.6,111.5 91.3,108.7 95.5,105.4 L105.6,115.5 C107,116.9 108.9,117.6 110.8,117.6 C112.7,117.6 114.5,116.9 116,115.5 C118.8,112.6 118.8,108 115.9,105.2 Z"
                            fill="#37B7FF"></path>
                    </g>
                </g>
            </g>
        </g>
    </g>
</svg>
